<svg aria-hidden="true" data-prefix="jwf-jw-icons-external" data-icon="document-stack" xmlns="http://www.w3.org/2000/svg" viewBox="0 0 24 24"><path fill="currentColor" d="M21 5.31a.36.36 0 0 0-.11-.16l-4-4a.36.36 0 0 0-.2-.15.41.41 0 0 0-.19 0h-8a.5.5 0 0 0-.5.5v3a.5.5 0 0 0 1 0V2h7v3.5a.5.5 0 0 0 .5.5H20v11h-2.5a.5.5 0 0 0 0 1h3a.5.5 0 0 0 .5-.5v-12a.41.41 0 0 0 0-.19zm-4-2.6L19.29 5H17zm-1.15 7.44-4-4a.36.36 0 0 0-.16-.15.41.41 0 0 0-.19 0h-8a.5.5 0 0 0-.5.5v16a.5.5 0 0 0 .5.5h12a.5.5 0 0 0 .5-.5v-12a.41.41 0 0 0 0-.19.36.36 0 0 0-.15-.16zM12 7.71 14.29 10H12zM4 22V7h7v3.5a.5.5 0 0 0 .5.5H15v11z"/></svg>