<svg aria-hidden="true" data-prefix="jwf-jw-icons-external" data-icon="printer" xmlns="http://www.w3.org/2000/svg" viewBox="0 0 24 24"><path fill="currentColor" d="M4.5 7a.5.5 0 0 0 .5-.5V2h10v3.5a.5.5 0 0 0 .5.5H19v.5a.5.5 0 0 0 1 0v-1a.503.503 0 0 0-.147-.354l-3.999-3.999A.503.503 0 0 0 15.5 1h-11a.5.5 0 0 0-.5.5v5a.5.5 0 0 0 .5.5zM16 2.707 18.293 5H16zM23.5 8H.5a.5.5 0 0 0-.5.5v11a.5.5 0 0 0 .5.5H4v2.5a.5.5 0 0 0 .5.5h15a.5.5 0 0 0 .5-.5V20h3.5a.5.5 0 0 0 .5-.5v-11a.5.5 0 0 0-.5-.5zM19 22H5v-8h14zm4-3h-3v-5.5a.5.5 0 0 0-.5-.5h-15a.5.5 0 0 0-.5.5V19H1V9h22z"/></svg>