<svg aria-hidden="true" data-prefix="jwf-jw-icons-external" data-icon="sign-language" xmlns="http://www.w3.org/2000/svg" viewBox="0 0 24 24"><path fill="currentColor" d="M23.938 17.541a25.486 25.486 0 0 1-1.583-3.255 7.448 7.448 0 0 1 .004-1.388c.053-.537.319-3.235.317-3.508.006-.07.145-1.727.117-2.864a77.057 77.057 0 0 0-.116-2.463.5.5 0 0 0-.362-.448 1.79 1.79 0 0 0-1.962.52 3.943 3.943 0 0 0-.3 2.28l.016.18a8.482 8.482 0 0 1-.346 1.01l-.652-1.183-2.088-3.027L14.59.53a1.679 1.679 0 0 0-1.823-.563 1.236 1.236 0 0 0-.476.294 1.21 1.21 0 0 0-.256-.182 1.224 1.224 0 0 0-1.339.322 1.192 1.192 0 0 0-.342 1.348l.116.21a1.775 1.775 0 0 0-.886 1.631.504.504 0 0 0 .056.203l.962 1.842a1.1 1.1 0 0 0-1.264-.005 1.17 1.17 0 0 0-.577 1.35 9.648 9.648 0 0 0 1.016 1.877 35.839 35.839 0 0 0-3.459 2.478c-.095.095-.276.269-.486.469l.106-.642c.136-.821.09-2.379-.952-3.01a1.44 1.44 0 0 0-1.194-.241.876.876 0 0 0-.534.477.491.491 0 0 0-.038.19 16.396 16.396 0 0 1-.112 1.64A9.712 9.712 0 0 1 2.48 12.4c-.058.157-.11.296-.152.414-.045.128-.137.36-.25.648a14.065 14.065 0 0 0-1.072 3.37 5.164 5.164 0 0 1-.163 1.706c-.193.466-.784 1.651-.79 1.663a.501.501 0 0 0-.046.308c.015.092.398 2.244 1.697 3.044a3.788 3.788 0 0 0 1.95.447 7.806 7.806 0 0 0 1.646-.185.5.5 0 0 0 .34-.275 7.745 7.745 0 0 1 1.107-1.755 20.318 20.318 0 0 1 4.436-1.562.5.5 0 0 0 .19-.099s1.377-1.147 1.875-1.579a23.437 23.437 0 0 0 2.14-2.44l1.844 1.976.857 2.21a.5.5 0 0 0 .272.28 4.073 4.073 0 0 0 1.47.257 4.308 4.308 0 0 0 1.97-.473 4.186 4.186 0 0 0 2.182-2.447.495.495 0 0 0-.045-.366zM11.405 1.108a.571.571 0 0 1 .207-.123c.536.306 2.738 3.725 4.555 6.854l.001.002a1.68 1.68 0 0 0-1.018-.007 2.977 2.977 0 0 0-.498-.335l-3.019-5.485a.48.48 0 0 0-.027-.05l-.347-.631a.41.41 0 0 1 .146-.225zm-.453 1.73 2.334 4.25a2.027 2.027 0 0 0-.775.037L10.584 3.44a.735.735 0 0 1 .368-.603zM9.72 6.7a.12.12 0 0 1 .032-.132.446.446 0 0 1 .247-.136l1.349 1.393c-.234.151-.48.313-.738.482A8.303 8.303 0 0 1 9.72 6.7zm2.87 11.09a171.3 171.3 0 0 1-1.775 1.495c-1.09.295-4.15 1.165-4.776 1.792a7.95 7.95 0 0 0-1.194 1.81 4.383 4.383 0 0 1-2.618-.186 3.797 3.797 0 0 1-1.205-2.207c.171-.345.58-1.177.744-1.576a5.694 5.694 0 0 0 .239-2.088 17.613 17.613 0 0 1 1.002-3.002c.12-.304.217-.55.263-.685.04-.111.09-.243.145-.39a10.714 10.714 0 0 0 .687-2.421c.07-.635.1-1.146.11-1.45a1.258 1.258 0 0 1 .254.124c.54.328.584 1.396.485 1.992l-.32 1.938c-.613.575-1.155 1.08-1.166 1.09a.5.5 0 1 0 .681.732c.098-.09 2.388-2.226 2.878-2.715a41.548 41.548 0 0 1 3.707-2.62l.004-.002.005-.004c.584-.387 1.185-.78 1.777-1.163.005-.002.011-.001.016-.004a.473.473 0 0 0 .041-.033l.233-.151A2.778 2.778 0 0 1 14 8.289a.472.472 0 0 0 .174.093c-1.752 1.218-5.592 4.255-5.623 4.286a.494.494 0 0 0-.003.694.504.504 0 0 0 .703.02c.395-.363 5.522-4.312 6.07-4.557a.627.627 0 0 1 .68.04 1.223 1.223 0 0 1-.124.65c-.016.016-.056.05-.104.091l-.022.02c-.18.153-.521.44-.952.801-3.94 3.309-4.626 3.953-4.748 4.216a.526.526 0 0 0 .228.69.547.547 0 0 0 .229.052.453.453 0 0 0 .42-.269c.275-.363 3.246-2.858 4.514-3.923.296-.248.546-.458.74-.623a2.352 2.352 0 0 1-.27.942c-.29.428-3.927 4.38-4.282 4.654a.5.5 0 0 0 .584.812c.278-.199 1.681-1.696 2.858-2.995a1.993 1.993 0 0 1-.096 1.026 27.515 27.515 0 0 1-2.384 2.78zm8.757 1.672a3.356 3.356 0 0 1-2.411.248l-.807-2.081a.485.485 0 0 0-.1-.16L15.95 15.24a3.64 3.64 0 0 0-.069-2.161c.462-.52.803-.92.873-1.03a2.612 2.612 0 0 0 .312-2.073.913.913 0 0 0-.202-.246 1.655 1.655 0 0 0-.027-1.41 1.231 1.231 0 0 0-.234-.241.49.49 0 0 0 .247-.06.5.5 0 0 0 .181-.683A66.075 66.075 0 0 0 12.96.994a.207.207 0 0 1 .115-.076.708.708 0 0 1 .727.225L16.188 4l2.033 2.947 1.62 2.949a.5.5 0 0 0 .878-.481l-.372-.675a9.583 9.583 0 0 0 .72-2.114c0-.06-.006-.16-.016-.286a3.556 3.556 0 0 1 .134-1.65.606.606 0 0 1 .518-.16c.027.474.071 1.292.09 2.023.027 1.08-.112 2.737-.115 2.796-.001.214-.194 2.23-.315 3.455a8.55 8.55 0 0 0 .004 1.63 21.188 21.188 0 0 0 1.587 3.39 3.349 3.349 0 0 1-1.606 1.64z"/></svg>