<svg aria-hidden="true" data-prefix="jwf-jw-icons-external" data-icon="share" xmlns="http://www.w3.org/2000/svg" viewBox="0 0 24 24"><path fill="currentColor" d="M1.5 22h-.023a.5.5 0 0 1-.472-.43c-.586-4.096.313-7.554 2.601-10C5.981 9.029 9.642 7.752 14 7.968V2.5a.5.5 0 0 1 .844-.363l9 8.5a.5.5 0 0 1 .02.707l-9 9.5A.5.5 0 0 1 14 20.5v-5.632a9.42 9.42 0 0 0-7.264.895 9.682 9.682 0 0 0-4.75 5.853A.5.5 0 0 1 1.5 22zM13.085 8.946c-3.662 0-6.733 1.152-8.748 3.307a9.912 9.912 0 0 0-2.505 7.034 11.379 11.379 0 0 1 4.419-4.398 10.368 10.368 0 0 1 8.407-.863.5.5 0 0 1 .342.474v4.745l7.793-8.225L15 3.66V8.5a.499.499 0 0 1-.16.367.51.51 0 0 1-.377.132q-.702-.053-1.378-.053z"/></svg>