<svg aria-hidden="true" data-prefix="jwf-jw-icons-external" data-icon="headphones" xmlns="http://www.w3.org/2000/svg" viewBox="0 0 24 24"><path fill="currentColor" d="M21.5 22a.5.5 0 0 1-.5-.5v-9.605C21 6.804 16.249 3 12 3s-9 3.804-9 8.895V21.5a.5.5 0 0 1-1 0v-9.605C2 6.23 7.28 2 12 2s10 4.231 10 9.895V21.5a.5.5 0 0 1-.5.5zm-17 0a.5.5 0 0 1-.5-.5v-8a.5.5 0 0 1 .5-.5C7.96 13 8 15.475 8 15.5v4C8 21.478 5.71 22 4.5 22zm.5-7.979v6.94c.73-.092 2-.404 2-1.461v-4c-.004-.137-.094-1.304-2-1.479zM19.5 22c-1.21 0-3.5-.522-3.5-2.5v-4c0-.025.04-2.5 3.5-2.5a.5.5 0 0 1 .5.5v8a.5.5 0 0 1-.5.5zm-.5-7.979c-1.906.175-1.996 1.343-2 1.486V19.5c0 1.057 1.27 1.37 2 1.46z"/></svg>