<svg aria-hidden="true" data-prefix="jwf-jw-icons-external" data-icon="watchtower-square" xmlns="http://www.w3.org/2000/svg" viewBox="0 0 24 24"><path fill="currentColor" d="M22.5 1h-21a.5.5 0 0 0-.5.5v21a.5.5 0 0 0 .5.5h21a.5.5 0 0 0 .5-.5v-21a.5.5 0 0 0-.5-.5zM22 22H2V2h20zM6.5 12H7v.5a.5.5 0 0 0 .5.5H8v3.5a.5.5 0 0 0 .5.5h7a.5.5 0 0 0 .5-.5V13h.5a.5.5 0 0 0 .5-.5V12h.5a.5.5 0 0 0 .5-.5v-4a.5.5 0 0 0-.5-.5h-11a.5.5 0 0 0-.5.5v4a.5.5 0 0 0 .5.5zM7 8h2v1.5a.5.5 0 0 0 1 0V8h1.5v1.5a.5.5 0 0 0 1 0V8H14v1.5a.5.5 0 0 0 1 0V8h2v3h-.5a.5.5 0 0 0-.5.5v.5h-.5a.5.5 0 0 0-.5.5V16H9v-3.5a.5.5 0 0 0-.5-.5H8v-.5a.5.5 0 0 0-.5-.5H7z"/></svg>