<svg aria-hidden="true" data-prefix="jwf-jw-icons-external" data-icon="donation" xmlns="http://www.w3.org/2000/svg" viewBox="0 0 24 24"><path fill="currentColor" d="m23.75 18.263.25-9.75a.503.503 0 0 0-.146-.367l-5-5A.5.5 0 0 0 18.5 3H.5a.5.5 0 0 0 0 1H3v10H.5a.5.5 0 0 0 0 1h3a.5.5 0 0 0 .5-.5V4h14.293l4.702 4.702-.217 8.43A3.981 3.981 0 0 0 20 16v-4.5a.5.5 0 0 0-.308-.461l-2.949-1.23a2.006 2.006 0 0 0-2.597.337 1.86 1.86 0 0 0 0 2.707l4 4c.022.022 2.116 2.178 1 3.293-1.13 1.13-3.271-.979-3.293-1l-4-4a.499.499 0 0 0-.168-.11l-5-2a.5.5 0 0 0-.37.928l4.904 1.962 3.927 3.928a7.01 7.01 0 0 0 .91.758 3.995 3.995 0 1 0 7.638-2.14.49.49 0 0 0 .056-.21zm-8.894-6.114a.863.863 0 0 1-.002-1.295 1.119 1.119 0 0 1 .797-.376.986.986 0 0 1 .55.172.49.49 0 0 0 .107.061L19 11.834v4.309c-.04.01-.078.022-.117.034l-.03-.03zM20 23a2.997 2.997 0 0 1-2.706-1.726 3.099 3.099 0 0 0 1.054.21 2.062 2.062 0 0 0 1.506-.63c1.126-1.127.552-2.678-.254-3.817A2.995 2.995 0 1 1 20 23zM.5 13a.5.5 0 0 0 .5-.5v-1a.5.5 0 0 0-1 0v1a.5.5 0 0 0 .5.5z"/></svg>