<svg aria-hidden="true" data-prefix="jwf-jw-icons-external" data-icon="jworg-logo--fill" xmlns="http://www.w3.org/2000/svg" viewBox="0 0 24 24"><path fill="currentColor" d="M8.54 15.42a1.81 1.81 0 0 0-.57-.5 1.53 1.53 0 0 0-.74-.18 1.56 1.56 0 0 0-.74.18 1.77 1.77 0 0 0-.57.49 2.18 2.18 0 0 0-.36.75 3.37 3.37 0 0 0-.13.93 3.67 3.67 0 0 0 .13 1 2.45 2.45 0 0 0 .37.76 1.81 1.81 0 0 0 .57.5 1.65 1.65 0 0 0 .74.18 1.48 1.48 0 0 0 .76-.21 1.57 1.57 0 0 0 .56-.5 2.19 2.19 0 0 0 .37-.75 3.34 3.34 0 0 0 .14-1 3.14 3.14 0 0 0-.13-.94 2.68 2.68 0 0 0-.4-.71zm5.26.58a1 1 0 0 0-.38-.84 1.44 1.44 0 0 0-.95-.3h-1.2v2.23h1.14a1.6 1.6 0 0 0 1-.28 1 1 0 0 0 .39-.81zM0 0v24h24V0zm4.38 19.92h-.84v-.84h.84zm.75-9.21a4.11 4.11 0 0 0 .78.48 2 2 0 0 0 .83.19 1.1 1.1 0 0 0 1-.45A2 2 0 0 0 8 9.7V4h1.08v5.7a3.06 3.06 0 0 1-.55 1.92 2 2 0 0 1-1.72.72 3 3 0 0 1-1.22-.22 4.77 4.77 0 0 1-.92-.55zm4.36 7.56a2.94 2.94 0 0 1-.49.93 2 2 0 0 1-.76.6 2.31 2.31 0 0 1-1 .21 2.44 2.44 0 0 1-1-.21 2 2 0 0 1-.76-.6 2.58 2.58 0 0 1-.48-.92 4 4 0 0 1-.2-1.18 3.76 3.76 0 0 1 .2-1.19 2.85 2.85 0 0 1 .5-.91 2.18 2.18 0 0 1 .77-.58 2.42 2.42 0 0 1 2 0A2.14 2.14 0 0 1 9 15a2.8 2.8 0 0 1 .5.9 4.34 4.34 0 0 1 0 2.37zm4.4 1.65-1.48-2.35h-1.14v2.35h-.6V14.3h1.84a2.59 2.59 0 0 1 .74.1 1.66 1.66 0 0 1 .61.3 1.36 1.36 0 0 1 .42.5 1.54 1.54 0 0 1 .16.73 1.72 1.72 0 0 1-.1.58 1.48 1.48 0 0 1-.28.45 1.53 1.53 0 0 1-.4.31 2.23 2.23 0 0 1-.51.19h-.1l1.57 2.44zm5.55-.58a2.26 2.26 0 0 1-.29.23 2.08 2.08 0 0 1-.39.22 3.13 3.13 0 0 1-.49.16 2.62 2.62 0 0 1-.57.06 2.51 2.51 0 0 1-1-.21 2.22 2.22 0 0 1-.8-.59 2.69 2.69 0 0 1-.51-.91 3.78 3.78 0 0 1-.18-1.2 3.6 3.6 0 0 1 .14-1.1 3 3 0 0 1 .53-.91 2.44 2.44 0 0 1 .79-.6 2.31 2.31 0 0 1 1-.22 2.58 2.58 0 0 1 1 .16 3 3 0 0 1 .74.44l-.41.43a3 3 0 0 0-.56-.37 1.69 1.69 0 0 0-.8-.18 1.51 1.51 0 0 0-.72.18 1.84 1.84 0 0 0-.59.49 2.32 2.32 0 0 0-.39.75 2.91 2.91 0 0 0-.15.95 3 3 0 0 0 .15 1 2.26 2.26 0 0 0 .39.74 1.91 1.91 0 0 0 .61.49 1.71 1.71 0 0 0 1.44 0 1.78 1.78 0 0 0 .43-.27v-1.63h-1.28v-.51h1.91zm-1.91-7.1h-.92l-1.77-6.18-1.95 6.18H12L10.11 4h1.15l1.32 6.27 1.83-6h.9l1.73 6c.09-.31 1.4-6.27 1.4-6.27h1.1z"/></svg>