<svg aria-hidden="true" data-prefix="jwf-jw-icons-external" data-icon="jw-square" xmlns="http://www.w3.org/2000/svg" viewBox="0 0 24 24"><path fill="currentColor" d="M8.48 13.79A3.7 3.7 0 0 1 7.85 16a2.41 2.41 0 0 1-2 .85 3.27 3.27 0 0 1-1.47-.29 5.29 5.29 0 0 1-1-.61l.53-1a5.3 5.3 0 0 0 .9.55 2.42 2.42 0 0 0 1 .21c1 0 1.47-.64 1.47-1.93V7.11h1.2zm9.88 3h-1.1l-2-7.24-2.3 7.24h-1.11L9.68 7.11H11l1.53 7.34 2.14-7h1.06l2 7a6.08 6.08 0 0 0 .27-.65c.08-.39.18-.85.3-1.4s.23-1.12.38-1.74.23-1.17.32-1.66.25-1.14.4-1.85h1.27zM22.5 23h-21a.5.5 0 0 1-.5-.5v-21a.5.5 0 0 1 .5-.5h21a.5.5 0 0 1 .5.5v21a.5.5 0 0 1-.5.5zM2 22h20V2H2z"/></svg>