<svg aria-hidden="true" data-prefix="jwf-jw-icons-external" data-icon="person-circle" xmlns="http://www.w3.org/2000/svg" viewBox="0 0 24 24"><path fill="currentColor" d="M18 18.462a.5.5 0 0 1-.5-.5v-2.009l-4.293-2.298a.5.5 0 0 1-.264-.44v-1.093a.503.503 0 0 1 .078-.268l1.316-2.067V7.096a3.06 3.06 0 0 0-2.312-1.634.11.11 0 0 0-.025 0 .5.5 0 0 1-.005-1h.032c2.079 0 3.21 2.184 3.257 2.278a.501.501 0 0 1 .053.226v2.967a.503.503 0 0 1-.078.268l-1.316 2.067v.647l4.293 2.298a.5.5 0 0 1 .264.44v2.309a.5.5 0 0 1-.5.5zM6 18.46a.5.5 0 0 1-.5-.5v-2.307a.5.5 0 0 1 .264-.44l4.293-2.298v-.647L8.741 10.2a.503.503 0 0 1-.078-.268V6.966a.501.501 0 0 1 .053-.226c.048-.094 1.185-2.256 3.29-2.278a.5.5 0 0 1 .494.506.51.51 0 0 1-.505.494h-.02a3.039 3.039 0 0 0-2.312 1.633v2.692l1.316 2.067a.503.503 0 0 1 .078.268v1.093a.5.5 0 0 1-.264.44L6.5 15.953v2.007a.5.5 0 0 1-.5.5zM12 23a11 11 0 1 1 11-11 11.012 11.012 0 0 1-11 11zm0-21a10 10 0 1 0 10 10A10.011 10.011 0 0 0 12 2z"/></svg>